<svg width="20" height="30" viewBox="0 0 20 30" fill="none" xmlns="http://www.w3.org/2000/svg">
<path d="M18.8333 30C16.5185 30 14.2315 29.2433 11.9722 27.73C9.71296 26.2167 7.65741 24.0706 5.80556 21.2917C3.9537 18.5128 2.52333 15.4294 1.51444 12.0417C0.505556 8.65389 0.000740741 5.22333 0 1.75C0 1.25 0.111111 0.833333 0.333333 0.5C0.555556 0.166667 0.833334 0 1.16667 0L5.66667 0C5.92593 0 6.15741 0.132222 6.36111 0.396667C6.56482 0.661111 6.68519 0.973333 6.72222 1.33333L7.11111 4.5L7.44444 7.16667C7.48148 7.61111 7.47222 7.98611 7.41667 8.29167C7.36111 8.59722 7.25926 8.86111 7.11111 9.08333L4.41667 13.1667C4.78704 14.1944 5.22667 15.1872 5.73556 16.145C6.24444 17.1028 6.80482 18.0267 7.41667 18.9167C7.99074 19.7778 8.59259 20.5767 9.22222 21.3133C9.85185 22.05 10.5185 22.7233 11.2222 23.3333L13.5 19.9167C13.6667 19.6667 14.2178 18.9794 14.4867 18.855C14.7556 18.7306 15.0193 18.6956 15.2778 18.75L19.1111 19.9167C19.3704 20.0278 19.5833 20.2294 19.75 20.5217C19.9167 20.8139 20 21.14 20 21.5V28.25C20 28.75 19.8889 29.1667 19.6667 29.5C19.4444 29.8333 19.1667 30 18.8333 30Z" fill="white"/>
</svg>
