<svg width="15" height="19" viewBox="0 0 15 19" fill="none" xmlns="http://www.w3.org/2000/svg">
<path d="M7.58075 9.02816C6.90255 9.02816 6.25212 8.77957 5.77256 8.33706C5.29299 7.89455 5.02358 7.29439 5.02358 6.66859C5.02358 6.04279 5.29299 5.44262 5.77256 5.00011C6.25212 4.55761 6.90255 4.30901 7.58075 4.30901C8.25896 4.30901 8.90939 4.55761 9.38895 5.00011C9.86852 5.44262 10.1379 6.04279 10.1379 6.66859C10.1379 6.97845 10.0718 7.28528 9.94328 7.57156C9.81477 7.85784 9.62641 8.11795 9.38895 8.33706C9.1515 8.55617 8.8696 8.72997 8.55934 8.84855C8.24909 8.96713 7.91657 9.02816 7.58075 9.02816ZM7.58075 0.0617676C5.68178 0.0617676 3.86058 0.757841 2.5178 1.99686C1.17502 3.23588 0.420654 4.91635 0.420654 6.66859C0.420654 11.6237 7.58075 18.9384 7.58075 18.9384C7.58075 18.9384 14.7409 11.6237 14.7409 6.66859C14.7409 4.91635 13.9865 3.23588 12.6437 1.99686C11.3009 0.757841 9.47973 0.0617676 7.58075 0.0617676Z" fill="black"/>
</svg>
